# xmcd
#
# Track frame offsets:
#	150
#	15736
#	28448
#	43339
#	63376
#	84966
#	101177
#	118027
#	134752
#	152455
#
# Disc length: 2243
#
# Revision: 1
# Processed by: cddbd v1.5.1PL0 Copyright (c) Steve Scherf et al.
# Submitted via: VisiTrax 2.9.5.180 - For more info visit www.synapsa.com
# Normalized: r0:DSETVAR1
#
DISCID=8a08c10a
DTITLE=Various Artist - CDX 211 April 1999
DYEAR=1999
DGENRE=
TTITLE0=Gene Watson - Couldn't love have picked a better place to die
TTITLE1=Gil Grand - I already fell
TTITLE2=Redmon and Vale - If I had a nickel (one thin dime)
TTITLE3=Trisha Yearwood - I'll still love you more
TTITLE4=Lionel Cartwright - Miles and years
TTITLE5=Blue Miller - Sometime tomorrow
TTITLE6=David Ball - Watching my baby not coming back
TTITLE7=George Strait - Write this down
TTITLE8=Kenny Chesney - You had me from hello
TTITLE9=Jody Jenkins - Every single thing
EXTD=
EXTT0=
EXTT1=
EXTT2=
EXTT3=
EXTT4=
EXTT5=
EXTT6=
EXTT7=
EXTT8=
EXTT9=
PLAYORDER=
